<svg xmlns="http://www.w3.org/2000/svg" viewBox="0 0 279.52 279.52"><defs><style>.cls-1{fill:#8766ff;}.cls-2{fill:#fb64ff;}</style></defs><g id="Layer_2" data-name="Layer 2"><g id="Layer_1-2" data-name="Layer 1"><path class="cls-1" d="M279.52,63.25v153a63.26,63.26,0,0,1-63.26,63.26h-153a63.26,63.26,0,0,1-61.19-47.2c.85,0,1.71,0,2.56,0H5.3A188.54,188.54,0,0,0,71.7,219.8a165.11,165.11,0,0,0,29.61-14.9q6-3.85,11.58-8.21c39.34-31,66.5-86.9,58.25-135.37-2-11.55-3.75-22-12.1-27.2C129.46,15.78,77.18,100.78,17.38,94.45A59.52,59.52,0,0,1,0,89.88V63.25A63.25,63.25,0,0,1,63.25,0h153A63.25,63.25,0,0,1,279.52,63.25Z"/><path class="cls-2" d="M101.31,204.9A165.11,165.11,0,0,1,71.7,219.8,188.54,188.54,0,0,1,5.3,232.32H4.62c-.85,0-1.71,0-2.56,0A63,63,0,0,1,0,216.26V173.65C11.31,150.86,23.28,146,28,144.6,53.93,137.07,86.53,170.08,101.31,204.9Z"/></g></g></svg>